<svg preserveAspectRatio="xMidYMid meet" data-bbox="20 44.1 160.1 111.8" xmlns="http://www.w3.org/2000/svg" width="200" height="200" viewBox="20 44.1 160.1 111.8" data-type="shape" role="presentation" aria-hidden="true" aria-labelledby="svgcid--k7rxct-a6t68l"><title id="svgcid--k7rxct-a6t68l"></title>
    <g>
        <path d="M28 58.1v84.4c0 2.9 2.4 5.3 5.3 5.3h133.3c2.9 0 5.3-2.4 5.3-5.3V58.2l-66 64.3c-3.5 2.9-8.5 2.9-12.1-.1L28 58.1zm5.4-6l65.7 64.2c.5.4 1.2.4 1.6.1l66-64.3H33.4zm133.2 103.8H33.4c-7.4 0-13.4-6-13.4-13.4v-85c0-7.4 6-13.4 13.4-13.4h133.3c7.4 0 13.4 6 13.4 13.4v85.1c-.1 7.3-6.1 13.3-13.5 13.3z"></path>
    </g>
</svg>