<svg preserveAspectRatio="xMidYMid meet" data-bbox="5.784 6.285 31.544 44.371" xmlns="http://www.w3.org/2000/svg" viewBox="5.784 6.285 31.544 44.371" role="presentation" aria-hidden="true">
    <g>
        <path d="M37.188 42.658c-.724-2.585-3.634-8.253-7.565-8.253-.99 0-1.914.359-2.746 1.069-.137.079-.532.281-.98.281-.205 0-.83 0-1.519-1.063-3.194-4.927-6.538-10.97-7.078-13.167 1.439-.465 3.891-1.524 4.736-3.516.362-.854.578-2.221-.451-3.888a53.423 53.423 0 0 1-1.596-2.817c-1.45-2.693-2.702-5.019-5.553-5.019a5.91 5.91 0 0 0-1.531.216c-5.051 1.348-7.31 4.507-7.109 9.941.29 7.822 3.877 16.245 10.661 25.035 6.537 8.47 9.702 9.179 12.155 9.179l.818-.011.251.003c1.958 0 4.847-1.708 6.438-3.807 1.07-1.412 1.44-2.859 1.069-4.183zm-3.459 2.371c-1.134 1.495-3.236 2.619-4.061 2.619l-.238-.003-.818.011c-1.167 0-3.597 0-9.78-8.012-6.395-8.284-9.773-16.127-10.039-23.312-.17-4.625 1.83-6.116 4.885-6.932.285-.076.54-.115.758-.115.967 0 1.566.944 2.911 3.441.478.888 1.02 1.894 1.685 2.971.43.696.294 1.018.242 1.139-.392.929-2.419 1.771-3.663 2.048l-.376.082-.29.253c-.798.696-2.665 2.326 6.915 17.104 1.302 2.01 2.913 2.432 4.036 2.432 1.495 0 2.619-.761 2.742-.848l.138-.109c.439-.394.746-.394.847-.394 1.534 0 3.936 3.415 4.677 6.063.104.375-.104.945-.571 1.562z"></path>
    </g>
</svg>