<?xml version="1.0" encoding="utf-8"?>
<!-- Generator: Adobe Illustrator 25.3.1, SVG Export Plug-In . SVG Version: 6.00 Build 0)  -->
<svg version="1.1" id="Layer_1" xmlns="http://www.w3.org/2000/svg" xmlns:xlink="http://www.w3.org/1999/xlink" x="0px" y="0px"
	 viewBox="0 0 87.2 84.1" style="enable-background:new 0 0 87.2 84.1;" xml:space="preserve">
<style type="text/css">
	.st0{fill:none;stroke:#FFFFFF;stroke-width:2;stroke-miterlimit:10;}
	.st1{fill:none;stroke:#FFFFFF;stroke-miterlimit:10;}
	.st2{fill:none;stroke:#FFFFFF;stroke-width:0.5;stroke-miterlimit:10;}
	.st3{fill:none;stroke:#FFFFFF;stroke-width:0.75;stroke-miterlimit:10;}
</style>
<circle class="st0" cx="55.5" cy="31.6" r="16.8"/>
<circle class="st1" cx="18" cy="65.2" r="9.5"/>
<circle class="st0" cx="23.8" cy="34.5" r="6.5"/>
<circle class="st0" cx="13.9" cy="14.3" r="4.2"/>
<circle class="st2" cx="71" cy="51.7" r="4"/>
<circle class="st1" cx="48.9" cy="61.9" r="4.2"/>
<circle class="st0" cx="69.2" cy="8.6" r="4.5"/>
<circle class="st0" cx="69.2" cy="68.9" r="10.3"/>
<circle class="st3" cx="9.7" cy="42.5" r="2.9"/>
<circle class="st3" cx="31.6" cy="75.4" r="2.7"/>
<circle class="st3" cx="52.6" cy="39.6" r="3.4"/>
<circle class="st3" cx="80.5" cy="40.9" r="5.4"/>
<circle class="st3" cx="32.7" cy="5.5" r="2.9"/>
<circle class="st3" cx="34.3" cy="48.5" r="5.2"/>
<circle class="st3" cx="78.4" cy="18.4" r="2"/>
<circle class="st3" cx="79.3" cy="30.5" r="2"/>
<circle class="st3" cx="49.3" cy="72.8" r="1.6"/>
<circle class="st3" cx="61.3" cy="23.8" r="1.8"/>
<circle class="st3" cx="32.1" cy="20.3" r="1.2"/>
<circle class="st3" cx="41.7" cy="12.4" r="1.8"/>
<circle class="st3" cx="39.7" cy="58.5" r="1.2"/>
</svg>
