<?xml version="1.0" encoding="utf-8"?>
<!-- Generator: Adobe Illustrator 25.3.1, SVG Export Plug-In . SVG Version: 6.00 Build 0)  -->
<svg version="1.1" id="Layer_1" xmlns="http://www.w3.org/2000/svg" xmlns:xlink="http://www.w3.org/1999/xlink" x="0px" y="0px"
	 viewBox="0 0 87.2 84.1" style="enable-background:new 0 0 87.2 84.1;" xml:space="preserve">
<style type="text/css">
	.st0{fill:none;stroke:#FFFFFF;stroke-width:3;stroke-miterlimit:10;}
	.st1{fill:none;stroke:#FFFFFF;stroke-miterlimit:10;}
</style>
<path class="st0" d="M27.7,31.6"/>
<path class="st0" d="M47.8,58.4c-7.3-2.1-13.3-7.1-16.8-13.6"/>
<path class="st0" d="M55.5,59.5c-2.7,0-5.3-0.4-7.7-1.1"/>
<path class="st0" d="M71.1,8.6c7.4,5,12.3,13.5,12.3,23.1c0,5.4-1.6,10.5-4.2,14.8"/>
<path class="st0" d="M55.5,3.8"/>
<path class="st0" d="M38.7,10.1c2.5-2.3,5.4-4.1,8.5-5.3"/>
<path class="st0" d="M36.7,11.1"/>
<path class="st0" d="M27.7,31.6"/>
<circle class="st1" cx="20.1" cy="71.8" r="9.6"/>
<circle class="st1" cx="8.4" cy="42.7" r="6.5"/>
<circle class="st1" cx="45.4" cy="67.4" r="4.4"/>
<circle class="st1" cx="77.5" cy="73.3" r="5.9"/>
<ellipse class="st1" cx="32" cy="14.6" rx="2.3" ry="2.3"/>
<ellipse class="st1" cx="66.6" cy="5.1" rx="1.7" ry="1.8"/>
<circle class="st1" cx="25.3" cy="22.5" r="4.4"/>
<circle class="st1" cx="56.5" cy="73" r="2.1"/>
<ellipse class="st1" cx="22.4" cy="47.4" rx="2.3" ry="2.3"/>
<ellipse class="st1" cx="81.2" cy="53.2" rx="3.1" ry="3"/>
<circle class="st1" cx="37.4" cy="78.4" r="3.2"/>
<ellipse class="st1" cx="64.4" cy="65.4" rx="2.3" ry="2.3"/>
<ellipse class="st1" cx="82.3" cy="10.3" rx="2.7" ry="2.7"/>
<ellipse class="st1" cx="32.2" cy="6.3" rx="1.2" ry="1.1"/>
<ellipse class="st1" cx="57" cy="3.4" rx="1.2" ry="1.1"/>
<ellipse class="st1" cx="20.1" cy="9.7" rx="3.8" ry="3.7"/>
<ellipse class="st1" cx="30" cy="57.4" rx="2.3" ry="2.3"/>
<circle class="st1" cx="74.9" cy="60.3" r="3.1"/>
<ellipse class="st1" cx="66.7" cy="79.1" rx="3.2" ry="3.1"/>
<ellipse class="st1" cx="12.7" cy="57.5" rx="3.6" ry="3.6"/>
<ellipse class="st1" cx="17" cy="29.4" rx="1.2" ry="1.1"/>
<ellipse class="st1" cx="27.9" cy="36.3" rx="3.2" ry="3.1"/>
</svg>
